<?xml version="1.0" encoding="UTF-8" standalone="no"?>
<!DOCTYPE svg PUBLIC "-//W3C//DTD SVG 1.1//EN" "http://www.w3.org/Graphics/SVG/1.1/DTD/svg11.dtd">
<svg xmlns="http://www.w3.org/2000/svg" version="1.1" viewBox="0.00 0.00 1024.00 1024.00">
    <g stroke-width="2.00" fill="none" stroke-linecap="butt">
        <path stroke="#8f8e8d" d="
  M 702.83 265.84
  L 714.18 257.46
  A 0.26 0.25 45.5 0 0 714.18 257.05
  Q 700.14 246.41 682.09 235.92
  Q 614.65 196.72 536.86 192.45
  C 527.38 191.93 515.36 192.01 507.25 192.08
  Q 484.26 192.29 459.49 196.71
  Q 434.74 201.13 416.85 206.91
  Q 334.02 233.69 275.24 298.44
  C 235.97 341.69 208.39 396.79 199.14 455.62
  Q 196.55 472.14 195.87 483.02
  Q 194.99 497.11 195.21 511.68
  C 195.91 558.20 207.62 604.29 228.60 645.61
  C 248.53 684.85 277.43 720.27 311.38 748.11
  Q 351.24 780.78 399.59 799.55
  Q 448.48 818.53 502.42 820.79
  Q 527.80 821.86 547.48 819.82
  Q 575.80 816.89 602.57 809.74
  Q 629.71 802.49 655.13 790.39
  Q 730.16 754.70 779.05 688.06
  Q 826.06 623.96 836.68 543.12
  C 837.42 537.51 837.73 530.00 838.25 523.39
  C 838.89 515.34 838.54 506.53 838.62 498.02
  Q 838.67 492.56 838.33 487.46
  Q 832.98 406.14 789.46 337.17
  A 1.04 1.02 -51.0 0 1 789.37 336.26
  /* 귀 보정: 움푹 들어간 제어점을 바깥으로 밀어 부드럽게 연결 */
  Q 804.50 312.50 801.03 285.39
  Q 801.33 281.78 801.23 279.09
  C 801.08 275.10 801.44 271.46 800.91 267.27
  C 799.47 255.94 797.61 242.52 783.85 240.51
  Q 776.57 239.45 765.58 242.36
  Q 747.90 247.05 732.47 256.47
  Q 720.79 263.60 713.57 270.04
  A 0.64 0.64 0.0 0 1 712.92 270.15
  L 702.87 266.18
  A 0.20 0.19 -52.0 0 1 702.83 265.84"
        />
        <path stroke="#8f8e8d" d="
  M 590.91 287.26
  Q 590.53 281.26 585.52 277.77
  Q 551.96 254.33 511.92 246.86
  C 507.86 246.11 503.67 245.91 500.01 245.47
  Q 494.48 244.80 488.21 246.47
  Q 478.84 248.99 476.26 257.77
  Q 474.38 264.18 474.72 270.75
  C 475.91 293.76 484.04 317.40 494.30 338.00
  Q 496.90 343.21 501.29 349.66
  C 506.83 357.82 515.95 355.57 520.40 347.97
  Q 523.60 342.49 520.65 338.05
  Q 506.77 317.14 500.54 293.48
  C 498.74 286.63 494.90 271.30 506.52 270.26
  Q 509.80 269.97 510.78 270.18
  Q 535.09 275.38 556.73 287.80
  Q 562.28 290.99 573.06 297.88
  A 4.25 4.01 68.5 0 0 574.10 298.37
  Q 581.42 300.61 586.96 295.72
  Q 591.21 291.98 590.91 287.26"
        />
        <path stroke="#8f8e8d" d="
  M 774.13 317.16
  Q 779.22 300.99 781.02 286.79
  C 781.72 281.26 781.69 275.62 780.87 269.64
  C 779.83 262.13 774.01 261.48 767.98 263.23
  Q 749.06 268.74 733.36 281.06
  A 0.53 0.52 41.5 0 0 733.42 281.93
  Q 756.70 295.85 773.77 317.22
  A 0.21 0.21 0.0 0 0 774.13 317.16"
        />
        <path stroke="#8f8e8d" d="
  M 698.18 525.17
  C 710.21 522.82 719.72 518.63 728.11 509.51
  C 733.28 503.88 737.25 499.86 742.96 494.68
  Q 744.98 492.85 752.46 487.29
  Q 760.84 481.06 769.92 472.87
  Q 777.21 466.29 783.24 457.64
  C 791.50 445.81 795.49 429.88 791.59 416.04
  C 788.10 403.67 779.35 394.08 766.88 390.31
  C 751.31 385.59 736.08 394.02 726.77 406.62
  Q 720.40 415.24 714.34 427.32
  Q 713.87 428.27 710.55 433.33
  C 705.74 440.66 696.89 442.86 689.32 438.55
  C 681.60 434.16 679.55 424.99 675.40 417.76
  Q 663.12 396.35 640.58 388.68
  C 629.04 384.74 615.76 384.38 603.01 386.08
  C 578.68 389.33 554.17 398.46 535.46 413.97
  Q 529.47 418.94 526.40 423.89
  C 518.23 437.08 520.57 449.22 530.63 459.91
  C 542.94 472.97 560.90 482.21 578.25 487.77
  Q 593.98 492.81 621.30 500.92
  Q 623.51 501.58 638.60 507.93
  C 643.89 510.16 647.96 512.83 654.48 516.53
  Q 670.84 525.79 689.19 525.95
  Q 693.98 525.99 698.18 525.17"
        />
        <path stroke="#8f8e8d" d="
  M 322.53 416.39
  Q 346.63 419.63 369.17 428.57
  Q 392.57 437.85 411.39 448.70
  Q 450.39 471.17 484.35 502.74
  Q 493.89 511.60 498.45 516.18
  C 501.06 518.81 503.12 521.50 505.42 523.63
  A 0.35 0.35 0.0 0 0 505.96 523.21
  Q 500.34 513.01 496.12 506.10
  C 473.70 469.40 439.60 440.58 399.09 426.43
  Q 375.00 418.02 346.99 415.28
  Q 343.80 414.97 322.54 415.38
  A 0.47 0.47 0.0 0 0 322.08 415.83
  L 322.08 415.85
  A 0.53 0.52 5.5 0 0 322.53 416.39"
        />
        <path stroke="#8f8e8d" d="
  M 436.70 527.27
  A 0.36 0.36 0.0 0 0 436.92 526.62
  C 433.17 523.87 430.55 521.59 427.21 519.32
  C 411.82 508.86 392.06 502.72 373.47 501.20
  Q 361.95 500.27 348.59 502.17
  Q 314.69 507.00 287.17 525.95
  C 263.71 542.11 246.40 565.24 240.89 592.63
  Q 238.71 603.46 240.10 613.75
  A 14.48 14.18 -60.7 0 0 241.08 617.39
  Q 250.46 640.12 264.85 661.58
  A 0.23 0.23 0.0 0 0 265.27 661.48
  Q 266.22 649.53 270.36 637.59
  Q 275.89 621.65 285.58 607.31
  Q 293.72 595.27 301.51 586.80
  Q 322.25 564.26 349.70 549.48
  Q 359.90 543.99 365.05 541.83
  Q 390.31 531.29 418.75 528.04
  Q 426.41 527.17 436.70 527.27"
        />
        <path stroke="#8f8e8d" d="
  M 405.40 774.96
  Q 396.83 758.46 395.36 739.16
  Q 395.34 738.86 394.91 735.34
  Q 394.61 732.89 394.58 730.98
  Q 394.26 707.17 400.21 685.94
  Q 410.42 649.54 431.62 621.34
  Q 440.29 609.81 444.31 605.81
  Q 449.80 600.35 456.09 594.73
  C 468.56 583.58 483.67 574.38 498.85 568.24
  A 0.51 0.51 0.0 0 0 498.85 567.30
  Q 486.50 562.29 472.38 560.76
  C 450.64 558.40 426.25 565.04 407.57 575.84
  Q 395.71 582.70 389.28 587.81
  Q 356.71 613.67 339.66 651.92
  Q 328.90 676.03 328.06 702.24
  Q 327.83 709.67 328.89 717.38
  C 329.69 723.18 332.15 729.87 333.72 735.53
  A 1.60 1.58 -80.3 0 0 334.34 736.42
  Q 352.37 749.26 361.81 754.69
  Q 382.21 766.42 404.87 775.54
  A 0.42 0.42 0.0 0 0 405.40 774.96"
        />
        <path stroke="#8f8e8d" d="
  M 626.99 575.99
  Q 615.75 575.59 594.06 576.02
  C 584.72 576.21 575.43 577.40 565.88 578.40
  C 547.65 580.32 530.02 590.50 516.84 603.36
  Q 503.91 615.96 494.79 632.25
  Q 468.65 678.92 475.66 732.76
  C 478.18 752.13 486.44 772.50 499.92 786.59
  Q 501.90 788.66 510.13 795.67
  A 1.42 1.40 -24.1 0 0 511.01 796.00
  C 539.88 796.68 569.45 792.45 597.20 785.06
  A 0.28 0.28 0.0 0 0 597.30 784.56
  C 571.31 765.02 558.16 732.51 555.69 700.21
  C 553.95 677.53 558.02 655.17 566.74 634.20
  Q 572.63 620.05 582.39 607.64
  Q 600.04 585.21 627.09 576.75
  A 0.39 0.39 0.0 0 0 626.99 575.99"
        />
        <path stroke="#8f8e8d" d="
  M 652.61 444.42
  Q 648.28 438.59 643.46 435.98
  A 6.57 6.56 -36.7 0 0 639.00 435.33
  C 629.97 437.23 622.03 437.98 613.13 434.85
  Q 602.48 431.10 598.55 429.27
  A 1.21 1.21 0.0 0 0 596.94 430.87
  C 599.07 435.45 603.57 441.15 608.06 444.07
  Q 619.56 451.54 633.73 448.96
  Q 636.08 448.54 647.95 444.85
  Q 649.33 444.42 652.38 444.81
  A 0.25 0.25 0.0 0 0 652.61 444.42"
        />
        <path stroke="#8f8e8d" d="
  M 769.35 429.05
  Q 759.73 432.86 757.19 433.90
  Q 750.97 436.44 744.82 435.39
  Q 739.06 434.40 738.19 434.61
  C 732.54 436.00 729.82 439.76 727.41 444.43
  A 0.65 0.64 1.5 0 0 728.25 445.31
  Q 730.50 444.30 733.08 445.19
  Q 739.22 447.29 743.00 447.67
  Q 753.07 448.67 760.93 443.43
  C 765.38 440.46 768.24 434.45 769.98 429.66
  A 0.48 0.48 0.0 0 0 769.35 429.05"
        />
        <path stroke="#8f8e8d" d="
  M 663.47 510.50
  A 0.45 0.44 2.8 0 0 662.88 511.03
  Q 663.00 511.45 663.41 511.78
  Q 665.85 513.71 670.34 515.12
  Q 681.52 518.65 692.86 516.90
  A 5.80 5.63 -43.9 0 1 694.67 516.91
  Q 702.45 518.27 709.28 515.97
  A 1.50 1.36 -17.0 0 0 710.28 514.29
  Q 710.16 513.85 709.66 513.77
  Q 705.43 513.12 702.27 510.96
  A 1.15 1.14 -72.7 0 1 701.78 510.02
  L 701.78 505.55
  A 1.14 1.14 0.0 0 1 702.16 504.70
  Q 703.60 503.42 705.30 503.08
  C 711.90 501.79 718.10 496.92 721.51 491.79
  C 725.56 485.71 722.33 480.69 716.05 478.92
  Q 712.49 477.92 709.01 477.81
  C 700.18 477.53 690.94 477.28 682.72 481.43
  C 673.71 485.99 680.32 494.04 685.65 497.61
  Q 691.69 501.65 698.42 503.59
  A 1.50 1.50 0.0 0 1 699.23 505.89
  Q 694.97 511.92 687.77 512.72
  C 680.04 513.58 671.11 513.41 663.47 510.50"
        />
    </g>
    <g fill="#ffffff">
        <path d="
  M 702.83 265.84
  L 714.18 257.46
  A 0.26 0.25 45.5 0 0 714.18 257.05
  Q 700.14 246.41 682.09 235.92
  Q 614.65 196.72 536.86 192.45
  C 527.38 191.93 515.36 192.01 507.25 192.08
  Q 484.26 192.29 459.49 196.71
  Q 434.74 201.13 416.85 206.91
  Q 334.02 233.69 275.24 298.44
  C 235.97 341.69 208.39 396.79 199.14 455.62
  Q 196.55 472.14 195.87 483.02
  Q 194.99 497.11 195.21 511.68
  C 195.91 558.20 207.62 604.29 228.60 645.61
  C 248.53 684.85 277.43 720.27 311.38 748.11
  Q 351.24 780.78 399.59 799.55
  Q 448.48 818.53 502.42 820.79
  Q 527.80 821.86 547.48 819.82
  Q 575.80 816.89 602.57 809.74
  Q 629.71 802.49 655.13 790.39
  Q 730.16 754.70 779.05 688.06
  Q 826.06 623.96 836.68 543.12
  C 837.42 537.51 837.73 530.00 838.25 523.39
  C 838.89 515.34 838.54 506.53 838.62 498.02
  Q 838.67 492.56 838.33 487.46
  Q 832.98 406.14 789.46 337.17
  A 1.04 1.02 -51.0 0 1 789.37 336.26
  /* 귀 보정 반영 */
  Q 804.50 312.50 801.03 285.39
  Q 801.33 281.78 801.23 279.09
  C 801.08 275.10 801.44 271.46 800.91 267.27
  C 799.47 255.94 797.61 242.52 783.85 240.51
  Q 776.57 239.45 765.58 242.36
  Q 747.90 247.05 732.47 256.47
  Q 720.79 263.60 713.57 270.04
  A 0.64 0.64 0.0 0 1 712.92 270.15
  L 702.87 266.18
  A 0.20 0.19 -52.0 0 1 702.83 265.84
  Z"
        />
        <path d="
  M 590.91 287.26
  Q 591.21 291.98 586.96 295.72
  Q 581.42 300.61 574.10 298.37
  A 4.25 4.01 68.5 0 1 573.06 297.88
  Q 562.28 290.99 556.73 287.80
  Q 535.09 275.38 510.78 270.18
  Q 509.80 269.97 506.52 270.26
  C 494.90 271.30 498.74 286.63 500.54 293.48
  Q 506.77 317.14 520.65 338.05
  Q 523.60 342.49 520.40 347.97
  C 515.95 355.57 506.83 357.82 501.29 349.66
  Q 496.90 343.21 494.30 338.00
  C 484.04 317.40 475.91 293.76 474.72 270.75
  Q 474.38 264.18 476.26 257.77
  Q 478.84 248.99 488.21 246.47
  Q 494.48 244.80 500.01 245.47
  C 503.67 245.91 507.86 246.11 511.92 246.86
  Q 551.96 254.33 585.52 277.77
  Q 590.53 281.26 590.91 287.26
  Z"
        />
        <path d="
  M 774.13 317.16
  A 0.21 0.21 0.0 0 1 773.77 317.22
  Q 756.70 295.85 733.42 281.93
  A 0.53 0.52 41.5 0 1 733.36 281.06
  Q 749.06 268.74 767.98 263.23
  C 774.01 261.48 779.83 262.13 780.87 269.64
  C 781.69 275.62 781.72 281.26 781.02 286.79
  Q 779.22 300.99 774.13 317.16
  Z"
        />
        <path d="
  M 689.19 525.95
  Q 670.84 525.79 654.48 516.53
  C 647.96 512.83 643.89 510.16 638.60 507.93
  Q 623.51 501.58 621.30 500.92
  Q 593.98 492.81 578.25 487.77
  C 560.90 482.21 542.94 472.97 530.63 459.91
  C 520.57 449.22 518.23 437.08 526.40 423.89
  Q 529.47 418.94 535.46 413.97
  C 554.17 398.46 578.68 389.33 603.01 386.08
  C 615.76 384.38 629.04 384.74 640.58 388.68
  Q 663.12 396.35 675.40 417.76
  C 679.55 424.99 681.60 434.16 689.32 438.55
  C 696.89 442.86 705.74 440.66 710.55 433.33
  Q 713.87 428.27 714.34 427.32
  Q 720.40 415.24 726.77 406.62
  C 736.08 394.02 751.31 385.59 766.88 390.31
  C 779.35 394.08 788.10 403.67 791.59 416.04
  C 795.49 429.88 791.50 445.81 783.24 457.64
  Q 777.21 466.29 769.92 472.87
  Q 760.84 481.06 752.46 487.29
  Q 744.98 492.85 742.96 494.68
  C 737.25 499.86 733.28 503.88 728.11 509.51
  C 719.72 518.63 710.21 522.82 698.18 525.17
  Q 693.98 525.99 689.19 525.95
  Z
  M 652.61 444.42
  Q 648.28 438.59 643.46 435.98
  A 6.57 6.56 -36.7 0 0 639.00 435.33
  C 629.97 437.23 622.03 437.98 613.13 434.85
  Q 602.48 431.10 598.55 429.27
  A 1.21 1.21 0.0 0 0 596.94 430.87
  C 599.07 435.45 603.57 441.15 608.06 444.07
  Q 619.56 451.54 633.73 448.96
  Q 636.08 448.54 647.95 444.85
  Q 649.33 444.42 652.38 444.81
  A 0.25 0.25 0.0 0 0 652.61 444.42
  Z
  M 769.35 429.05
  Q 759.73 432.86 757.19 433.90
  Q 750.97 436.44 744.82 435.39
  Q 739.06 434.40 738.19 434.61
  C 732.54 436.00 729.82 439.76 727.41 444.43
  A 0.65 0.64 1.5 0 0 728.25 445.31
  Q 730.50 444.30 733.08 445.19
  Q 739.22 447.29 743.00 447.67
  Q 753.07 448.67 760.93 443.43
  C 765.38 440.46 768.24 434.45 769.98 429.66
  A 0.48 0.48 0.0 0 0 769.35 429.05
  Z
  M 663.47 510.50
  A 0.45 0.44 2.8 0 0 662.88 511.03
  Q 663.00 511.45 663.41 511.78
  Q 665.85 513.71 670.34 515.12
  Q 681.52 518.65 692.86 516.90
  A 5.80 5.63 -43.9 0 1 694.67 516.91
  Q 702.45 518.27 709.28 515.97
  A 1.50 1.36 -17.0 0 0 710.28 514.29
  Q 710.16 513.85 709.66 513.77
  Q 705.43 513.12 702.27 510.96
  A 1.15 1.14 -72.7 0 1 701.78 510.02
  L 701.78 505.55
  A 1.14 1.14 0.0 0 1 702.16 504.70
  Q 703.60 503.42 705.30 503.08
  C 711.90 501.79 718.10 496.92 721.51 491.79
  C 725.56 485.71 722.33 480.69 716.05 478.92
  Q 712.49 477.92 709.01 477.81
  C 700.18 477.53 690.94 477.28 682.72 481.43
  C 673.71 485.99 680.32 494.04 685.65 497.61
  Q 691.69 501.65 698.42 503.59
  A 1.50 1.50 0.0 0 1 699.23 505.89
  Q 694.97 511.92 687.77 512.72
  C 680.04 513.58 671.11 513.41 663.47 510.50
  Z"
        />
        <path d="
  M 322.53 416.39
  A 0.53 0.52 5.5 0 1 322.08 415.85
  L 322.08 415.83
  A 0.47 0.47 0.0 0 1 322.54 415.38
  Q 343.80 414.97 346.99 415.28
  Q 375.00 418.02 399.09 426.43
  C 439.60 440.58 473.70 469.40 496.12 506.10
  Q 500.34 513.01 505.96 523.21
  A 0.35 0.35 0.0 0 1 505.42 523.63
  C 503.12 521.50 501.06 518.81 498.45 516.18
  Q 493.89 511.60 484.35 502.74
  Q 450.39 471.17 411.39 448.70
  Q 392.57 437.85 369.17 428.57
  Q 346.63 419.63 322.53 416.39
  Z"
        />
        <path d="
  M 436.70 527.27
  Q 426.41 527.17 418.75 528.04
  Q 390.31 531.29 365.05 541.83
  Q 359.90 543.99 349.70 549.48
  Q 322.25 564.26 301.51 586.80
  Q 293.72 595.27 285.58 607.31
  Q 275.89 621.65 270.36 637.59
  Q 266.22 649.53 265.27 661.48
  A 0.23 0.23 0.0 0 1 264.85 661.58
  Q 250.46 640.12 241.08 617.39
  A 14.48 14.18 -60.7 0 1 240.10 613.75
  Q 238.71 603.46 240.89 592.63
  C 246.40 565.24 263.71 542.11 287.17 525.95
  Q 314.69 507.00 348.59 502.17
  Q 361.95 500.27 373.47 501.20
  C 392.06 502.72 411.82 508.86 427.21 519.32
  C 430.55 521.59 433.17 523.87 436.92 526.62
  A 0.36 0.36 0.0 0 1 436.70 527.27
  Z"
        />
        <path d="
  M 405.40 774.96
  A 0.42 0.42 0.0 0 1 404.87 775.54
  Q 382.21 766.42 361.81 754.69
  Q 352.37 749.26 334.34 736.42
  A 1.60 1.58 -80.3 0 1 333.72 735.53
  C 332.15 729.87 329.69 723.18 328.89 717.38
  Q 327.83 709.67 328.06 702.24
  Q 328.90 676.03 339.66 651.92
  Q 356.71 613.67 389.28 587.81
  Q 395.71 582.70 407.57 575.84
  C 426.25 565.04 450.64 558.40 472.38 560.76
  Q 486.50 562.29 498.85 567.30
  A 0.51 0.51 0.0 0 1 498.85 568.24
  C 483.67 574.38 468.56 583.58 456.09 594.73
  Q 449.80 600.35 444.31 605.81
  Q 440.29 609.81 431.62 621.34
  Q 410.42 649.54 400.21 685.94
  Q 394.26 707.17 394.58 730.98
  Q 394.61 732.89 394.91 735.34
  Q 395.34 738.86 395.36 739.16
  Q 396.83 758.46 405.40 774.96
  Z"
        />
        <path d="
  M 626.99 575.99
  A 0.39 0.39 0.0 0 1 627.09 576.75
  Q 600.04 585.21 582.39 607.64
  Q 572.63 620.05 566.74 634.20
  C 558.02 655.17 553.95 677.53 555.69 700.21
  C 558.16 732.51 571.31 765.02 597.30 784.56
  A 0.28 0.28 0.0 0 1 597.20 785.06
  C 569.45 792.45 539.88 796.68 511.01 796.00
  A 1.42 1.40 -24.1 0 1 510.13 795.67
  Q 501.90 788.66 499.92 786.59
  C 486.44 772.50 478.18 752.13 475.66 732.76
  Q 468.65 678.92 494.79 632.25
  Q 503.91 615.96 516.84 603.36
  C 530.02 590.50 547.65 580.32 565.88 578.40
  C 575.43 577.40 584.72 576.21 594.06 576.02
  Q 615.75 575.59 626.99 575.99
  Z"
        />
    </g>
    <g fill="#1e1d1a">
        <path d="
  M 702.83 265.84
  A 0.20 0.19 -52.0 0 0 702.87 266.18
  L 712.92 270.15
  A 0.64 0.64 0.0 0 0 713.57 270.04
  Q 720.79 263.60 732.47 256.47
  Q 747.90 247.05 765.58 242.36
  Q 776.57 239.45 783.85 240.51
  C 797.61 242.52 799.47 255.94 800.91 267.27
  C 801.44 271.46 801.08 275.10 801.23 279.09
  Q 801.33 281.78 801.03 285.39
  Q 798.81 311.71 789.37 336.26
  A 1.04 1.02 -51.0 0 0 789.46 337.17
  Q 832.98 406.14 838.33 487.46
  Q 838.67 492.56 838.62 498.02
  C 838.54 506.53 838.89 515.34 838.25 523.39
  C 837.73 530.00 837.42 537.51 836.68 543.12
  Q 826.06 623.96 779.05 688.06
  Q 730.16 754.70 655.13 790.39
  Q 629.71 802.49 602.57 809.74
  Q 575.80 816.89 547.48 819.82
  Q 527.80 821.86 502.42 820.79
  Q 448.48 818.53 399.59 799.55
  Q 448.48 818.53 399.59 799.55
  Q 351.24 780.78 311.38 748.11
  C 277.43 720.27 248.53 684.85 228.60 645.61
  C 207.62 604.29 195.91 558.20 195.21 511.68
  Q 194.99 497.11 195.87 483.02
  Q 196.55 472.14 199.14 455.62
  C 208.39 396.79 235.97 341.69 275.24 298.44
  Q 334.02 233.69 416.85 206.91
  Q 434.74 201.13 459.49 196.71
  Q 484.26 192.29 507.25 192.08
  C 515.36 192.01 527.38 191.93 536.86 192.45
  Q 614.65 196.72 682.09 235.92
  Q 700.14 246.41 714.18 257.05
  A 0.26 0.25 45.5 0 1 714.18 257.46
  L 702.83 265.84
  Z
  M 590.91 287.26
  Q 590.53 281.26 585.52 277.77
  Q 551.96 254.33 511.92 246.86
  C 507.86 246.11 503.67 245.91 500.01 245.47
  Q 494.48 244.80 488.21 246.47
  Q 478.84 248.99 476.26 257.77
  Q 474.38 264.18 474.72 270.75
  C 475.91 293.76 484.04 317.40 494.30 338.00
  Q 496.90 343.21 501.29 349.66
  C 506.83 357.82 515.95 355.57 520.40 347.97
  Q 523.60 342.49 520.65 338.05
  Q 506.77 317.14 500.54 293.48
  C 498.74 286.63 494.90 271.30 506.52 270.26
  Q 509.80 269.97 510.78 270.18
  Q 535.09 275.38 556.73 287.80
  Q 562.28 290.99 573.06 297.88
  A 4.25 4.01 68.5 0 0 574.10 298.37
  Q 581.42 300.61 586.96 295.72
  Q 591.21 291.98 590.91 287.26
  Z
  M 774.13 317.16
  Q 779.22 300.99 781.02 286.79
  C 781.72 281.26 781.69 275.62 780.87 269.64
  C 779.83 262.13 774.01 261.48 767.98 263.23
  Q 749.06 268.74 733.36 281.06
  A 0.53 0.52 41.5 0 0 733.42 281.93
  Q 756.70 295.85 773.77 317.22
  A 0.21 0.21 0.0 0 0 774.13 317.16
  Z
  M 698.18 525.17
  C 710.21 522.82 719.72 518.63 728.11 509.51
  C 733.28 503.88 737.25 499.86 742.96 494.68
  Q 744.98 492.85 752.46 487.29
  Q 760.84 481.06 769.92 472.87
  Q 777.21 466.29 783.24 457.64
  C 791.50 445.81 795.49 429.88 791.59 416.04
  C 788.10 403.67 779.35 394.08 766.88 390.31
  C 751.31 385.59 736.08 394.02 726.77 406.62
  Q 720.40 415.24 714.34 427.32
  Q 713.87 428.27 710.55 433.33
  C 705.74 440.66 696.89 442.86 689.32 438.55
  C 681.60 434.16 679.55 424.99 675.40 417.76
  Q 663.12 396.35 640.58 388.68
  C 629.04 384.74 615.76 384.38 603.01 386.08
  C 578.68 389.33 554.17 398.46 535.46 413.97
  Q 529.47 418.94 526.40 423.89
  C 518.23 437.08 520.57 449.22 530.63 459.91
  C 542.94 472.97 560.90 482.21 578.25 487.77
  Q 593.98 492.81 621.30 500.92
  Q 623.51 501.58 638.60 507.93
  C 643.89 510.16 647.96 512.83 654.48 516.53
  Q 670.84 525.79 689.19 525.95
  Q 693.98 525.99 698.18 525.17
  Z
  M 322.53 416.39
  Q 346.63 419.63 369.17 428.57
  Q 392.57 437.85 411.39 448.70
  Q 450.39 471.17 484.35 502.74
  Q 493.89 511.60 498.45 516.18
  C 501.06 518.81 503.12 521.50 505.42 523.63
  A 0.35 0.35 0.0 0 0 505.96 523.21
  Q 500.34 513.01 496.12 506.10
  C 473.70 469.40 439.60 440.58 399.09 426.43
  Q 375.00 418.02 346.99 415.28
  Q 343.80 414.97 322.54 415.38
  A 0.47 0.47 0.0 0 0 322.08 415.83
  L 322.08 415.85
  A 0.53 0.52 5.5 0 0 322.53 416.39
  Z
  M 436.70 527.27
  A 0.36 0.36 0.0 0 0 436.92 526.62
  C 433.17 523.87 430.55 521.59 427.21 519.32
  C 411.82 508.86 392.06 502.72 373.47 501.20
  Q 361.95 500.27 348.59 502.17
  Q 314.69 507.00 287.17 525.95
  C 263.71 542.11 246.40 565.24 240.89 592.63
  Q 238.71 603.46 240.10 613.75
  A 14.48 14.18 -60.7 0 0 241.08 617.39
  Q 250.46 640.12 264.85 661.58
  A 0.23 0.23 0.0 0 0 265.27 661.48
  Q 266.22 649.53 270.36 637.59
  Q 275.89 621.65 285.58 607.31
  Q 293.72 595.27 301.51 586.80
  Q 322.25 564.26 349.70 549.48
  Q 359.90 543.99 365.05 541.83
  Q 390.31 531.29 418.75 528.04
  Q 426.41 527.17 436.70 527.27
  Z
  M 405.40 774.96
  Q 396.83 758.46 395.36 739.16
  Q 395.34 738.86 394.91 735.34
  Q 394.61 732.89 394.58 730.98
  Q 394.26 707.17 400.21 685.94
  Q 410.42 649.54 431.62 621.34
  Q 440.29 609.81 444.31 605.81
  Q 449.80 600.35 456.09 594.73
  C 468.56 583.58 483.67 574.38 498.85 568.24
  A 0.51 0.51 0.0 0 0 498.85 567.30
  Q 486.50 562.29 472.38 560.76
  C 450.64 558.40 426.25 565.04 407.57 575.84
  Q 395.71 582.70 389.28 587.81
  Q 356.71 613.67 339.66 651.92
  Q 328.90 676.03 328.06 702.24
  Q 327.83 709.67 328.89 717.38
  C 329.69 723.18 332.15 729.87 333.72 735.53
  A 1.60 1.58 -80.3 0 0 334.34 736.42
  Q 352.37 749.26 361.81 754.69
  Q 382.21 766.42 404.87 775.54
  A 0.42 0.42 0.0 0 0 405.40 774.96
  Z
  M 626.99 575.99
  Q 615.75 575.59 594.06 576.02
  C 584.72 576.21 575.43 577.40 565.88 578.40
  C 547.65 580.32 530.02 590.50 516.84 603.36
  Q 503.91 615.96 494.79 632.25
  Q 468.65 678.92 475.66 732.76
  C 478.18 752.13 486.44 772.50 499.92 786.59
  Q 501.90 788.66 510.13 795.67
  A 1.42 1.40 -24.1 0 0 511.01 796.00
  C 539.88 796.68 569.45 792.45 597.20 785.06
  A 0.28 0.28 0.0 0 0 597.30 784.56
  C 571.31 765.02 558.16 732.51 555.69 700.21
  C 553.95 677.53 558.02 655.17 566.74 634.20
  Q 572.63 620.05 582.39 607.64
  Q 600.04 585.21 627.09 576.75
  A 0.39 0.39 0.0 0 0 626.99 575.99
  Z"
        />
        <path d="
  M 652.38 444.81
  Q 649.33 444.42 647.95 444.85
  Q 636.08 448.54 633.73 448.96
  Q 619.56 451.54 608.06 444.07
  C 603.57 441.15 599.07 435.45 596.94 430.87
  A 1.21 1.21 0.0 0 1 598.55 429.27
  Q 602.48 431.10 613.13 434.85
  C 622.03 437.98 629.97 437.23 639.00 435.33
  A 6.57 6.56 -36.7 0 1 643.46 435.98
  Q 648.28 438.59 652.61 444.42
  A 0.25 0.25 0.0 0 1 652.38 444.81
  Z"
        />
        <path d="
  M 769.35 429.05
  A 0.48 0.48 0.0 0 1 769.98 429.66
  C 768.24 434.45 765.38 440.46 760.93 443.43
  Q 753.07 448.67 743.00 447.67
  Q 739.22 447.29 733.08 445.19
  Q 730.50 444.30 728.25 445.31
  A 0.65 0.64 1.5 0 1 727.41 444.43
  C 729.82 439.76 732.54 436.00 738.19 434.61
  Q 739.06 434.40 744.82 435.39
  Q 750.97 436.44 757.19 433.90
  Q 759.73 432.86 769.35 429.05
  Z"
        />
        <path d="
  M 663.47 510.50
  C 671.11 513.41 680.04 513.58 687.77 512.72
  Q 694.97 511.92 699.23 505.89
  A 1.50 1.50 0.0 0 0 698.42 503.59
  Q 691.69 501.65 685.65 497.61
  C 680.32 494.04 673.71 485.99 682.72 481.43
  C 690.94 477.28 700.18 477.53 709.01 477.81
  Q 712.49 477.92 716.05 478.92
  C 722.33 480.69 725.56 485.71 721.51 491.79
  C 718.10 496.92 711.90 501.79 705.30 503.08
  Q 703.60 503.42 702.16 504.70
  A 1.14 1.14 0.0 0 0 701.78 505.55
  L 701.78 510.02
  A 1.15 1.14 -72.7 0 0 702.27 510.96
  Q 705.43 513.12 709.66 513.77
  Q 710.16 513.85 710.28 514.29
  A 1.50 1.36 -17.0 0 1 709.28 515.97
  Q 702.45 518.27 694.67 516.91
  A 5.80 5.63 -43.9 0 0 692.86 516.90
  Q 681.52 518.65 670.34 515.12
  Q 665.85 513.71 663.41 511.78
  Q 663.00 511.45 662.88 511.03
  A 0.45 0.44 2.8 0 1 663.47 510.50
  Z"
        />
    </g>
</svg>